<?xml version="1.0" standalone="no"?>
<!DOCTYPE svg PUBLIC "-//W3C//DTD SVG 20010904//EN"
 "http://www.w3.org/TR/2001/REC-SVG-20010904/DTD/svg10.dtd">
<svg version="1.0" xmlns="http://www.w3.org/2000/svg"
 width="700.000000pt" height="700.000000pt" viewBox="0 0 700.000000 700.000000"
 preserveAspectRatio="xMidYMid meet">
<metadata>
Created by potrace 1.14, written by Peter Selinger 2001-2017
</metadata>
<g transform="translate(0.000000,700.000000) scale(0.100000,-0.100000)"
fill="#000000" stroke="none">
<path d="M442 6556 c-8 -13 -7 -6105 1 -6113 9 -8 6082 -10 6105 -2 16 6 17
201 15 3050 -1 1674 -2 3051 -2 3059 -1 13 -348 15 -3057 15 -1852 0 -3058 -4
-3062 -9z m4559 -626 c1 -21 1 -460 0 -485 l-1 -21 -1187 0 -1188 1 0 -828 -1
-827 1006 0 1006 0 -1 -257 c-1 -142 -3 -260 -3 -263 -1 -3 -453 -5 -1005 -5
l-1002 0 -1 -1085 c-1 -597 -2 -1090 -3 -1095 -1 -7 -107 -11 -311 -11 -305 0
-310 0 -311 21 0 11 -1 1111 -2 2445 l-2 2426 1503 0 c1344 0 1502 -2 1503
-16z"/>
</g>
</svg>
